<?xml version="1.0" encoding="utf-8"?>
<!-- Generator: Adobe Illustrator 21.0.0, SVG Export Plug-In . SVG Version: 6.00 Build 0)  -->
<svg version="1.1" id="Layer_1" xmlns="http://www.w3.org/2000/svg" xmlns:xlink="http://www.w3.org/1999/xlink" x="0px" y="0px"
	 viewBox="0 0 16 16" style="enable-background:new 0 0 16 16;" xml:space="preserve">
<style type="text/css">
	.st0{fill:#00A651;}
	.st1{fill:#FFF200;}
	.st2{fill:#F15A29;}
	.st3{fill:#ED1C24;}
	.st4{fill:#9E1F63;}
	.st5{fill:#662D91;}
	.st6{fill:#2E3192;}
	.st7{fill:#00AEEF;}
</style>
<g>
	<path class="st0" d="M13.7,2.4l-3.4,3.4c0.5,0.6,0.9,1.3,0.9,2.2c0,0.1,0,0.1,0,0.2H16c0-0.1,0-0.1,0-0.2C16,5.8,15.1,3.9,13.7,2.4
		z"/>
	<path class="st1" d="M8,4.8c0.9,0,1.8,0.4,2.3,1l3.4-3.4C12.3,0.9,10.2,0,8,0L8,4.8L8,4.8z"/>
	<path class="st2" d="M8,4.8V0C5.7,0,3.7,0.9,2.3,2.4l3.4,3.4C6.2,5.2,7.1,4.8,8,4.8z"/>
	<path class="st3" d="M4.8,8c0-0.8,0.3-1.6,0.9-2.2L2.3,2.4C0.9,3.9,0,5.8,0,8c0,0.1,0,0.1,0,0.2h4.8C4.8,8.1,4.8,8.1,4.8,8z"/>
	<path class="st4" d="M4.8,8.2H0c0,2.2,1,4.2,2.4,5.6l3.4-3.4C5.2,9.8,4.8,9,4.8,8.2z"/>
	<path class="st5" d="M5.8,10.3l-3.4,3.4C3.9,15.1,5.8,16,8,16v-4.8C7.2,11.2,6.4,10.9,5.8,10.3z"/>
	<path class="st6" d="M10.2,10.3c-0.6,0.5-1.3,0.9-2.2,0.9l0,0V16c2.2,0,4.1-0.9,5.6-2.3L10.2,10.3z"/>
	<path class="st7" d="M11.2,8.2c0,0.9-0.4,1.6-1,2.2l3.4,3.4C15,12.3,16,10.3,16,8.2H11.2z"/>
</g>
</svg>
