<svg xmlns ="http://www.w3.org/2000/svg" class="header-icon" id="Layer_1" data-name="Layer 1" viewBox="0 0 229.63 43.78">
<title>SLF_232x44</title>
<defs><style>.cls-1{fill:#013946;}</style></defs>
<path class="cls-1" d="M60,28.3c-.3-1.11-.73-3.3-3.21-3.3a2.11,2.11,0,0,0-2.28,2.17c0,3.34,7.29,3.12,7.29,7.76,0,3.08-2.87,4.21-5.6,4.21a8.7,8.7,0,0,1-4-.87,9.57,9.57,0,0,1-.66-4.08L52.62,34c.32,1.3,1.07,4.34,4,4.34A2.26,2.26,0,0,0,59,35.91c0-3.66-7.06-3.38-7.06-7.83,0-2.75,2.14-3.9,5.08-3.9a7,7,0,0,1,3.57.8,20,20,0,0,1,.25,3.32Z" transform="translate(-0.64 -0.11)"/>
<path class="cls-1" d="M71.54,38a6.38,6.38,0,0,1-3.46,1.1c-3.53,0-3.69-2-3.69-4.36V31.64c0-.76,0-1.73-.68-1.73A2.6,2.6,0,0,0,63,30v-.63a15.74,15.74,0,0,1,4.14-.78v6.09c0,1.71.34,3.16,2.57,3.16a3.4,3.4,0,0,0,1.71-.54V31.64c0-.76,0-1.73-.68-1.73A2.62,2.62,0,0,0,70,30v-.63a15.74,15.74,0,0,1,4.14-.78v6.48c0,1.78,0,2.62.77,2.62a3.38,3.38,0,0,0,.64,0l0,.56a28.21,28.21,0,0,1-3.44.87Z" transform="translate(-0.64 -0.11)"/>
<path class="cls-1" d="M78.39,31.64c0-.76,0-1.73-.68-1.73A2.65,2.65,0,0,0,77,30v-.63a15.47,15.47,0,0,1,4.1-.78v1.26a5.29,5.29,0,0,1,3.6-1.26c2,0,3.44.93,3.44,3.86v4.27c0,1.15.11,1.39.93,1.45l.48,0v.56H84v-.56l.48,0c.82-.07.93-.3.93-1.45V33.68c0-1.71,0-3.79-2.37-3.79a2.57,2.57,0,0,0-1.89.82v6c0,1.15.11,1.39.93,1.45l.48,0v.56H77v-.56l.48,0c.77-.07.89-.3.89-1.45Z" transform="translate(-0.64 -0.11)"/>
<path class="cls-1" d="M138,38.25l.52-.07c1.09-.13,1.09-.18,1.09-2.56V27.69c0-2.28,0-2.38-1.07-2.56l-.55-.07V24.5h10.5A22.45,22.45,0,0,1,148.8,28l-.82.09c-.48-2-.59-2.78-3.55-2.78h-1.8v6h1.77c1.78,0,2.23,0,2.39-.93l.14-.76h.59V34h-.59l-.11-.82c-.18-.87-.75-.87-2.39-.87h-1.8v3.3c0,2.32,0,2.38,1.09,2.56l.52.07v.56H138Z" transform="translate(-0.64 -0.11)"/>
<path class="cls-1" d="M150.15,38.25l.48,0c.82-.09.93-.31.93-1.46V31.64c0-.76,0-1.73-.68-1.73a2.64,2.64,0,0,0-.73.13V29.4a15.89,15.89,0,0,1,4.14-.78v8.13c0,1.15.12,1.37.93,1.46l.48,0v.56h-5.55Zm1-13a1.53,1.53,0,0,1,1.59-1.49,1.56,1.56,0,0,1,1.59,1.49,1.59,1.59,0,0,1-3.19,0Z" transform="translate(-0.64 -0.11)"/>
<path class="cls-1" d="M158.62,31.64c0-.76,0-1.73-.68-1.73a2.62,2.62,0,0,0-.73.13V29.4a15.58,15.58,0,0,1,4.1-.78v1.26a5.29,5.29,0,0,1,3.6-1.26c2,0,3.44.93,3.44,3.86v4.27c0,1.15.11,1.39.93,1.46l.48,0v.56H164.2v-.56l.48,0c.82-.07.93-.31.93-1.46V33.68c0-1.71,0-3.79-2.37-3.79a2.57,2.57,0,0,0-1.89.82v6c0,1.15.11,1.39.93,1.46l.48,0v.56h-5.51v-.56l.48,0c.78-.07.89-.31.89-1.46Z" transform="translate(-0.64 -0.11)"/>
<path class="cls-1" d="M176.89,36.19a11.54,11.54,0,0,0,.09,1.17,2.15,2.15,0,0,1-1.39.52,1.68,1.68,0,0,1-1.68-1.82c0-1.61,1.44-2.25,2.73-2.25l.25,0Zm4.37,2.13a.56.56,0,0,1-.18,0c-1.46,0-1.46-1.61-1.46-3.17V32.51c0-2.47-.5-3.88-3.37-3.88a6.71,6.71,0,0,0-4.9,2.3A3.12,3.12,0,0,0,172,32h.23a3,3,0,0,1,2.71-2.15c1.62,0,2,1.15,2,2.43v.52C175,33.31,171,34,171,36.78c0,1.39,1.21,2.36,3,2.36A5.16,5.16,0,0,0,177.14,38a2.23,2.23,0,0,0,2.23,1.11,3.94,3.94,0,0,0,2-.54Z" transform="translate(-0.64 -0.11)"/>
<path class="cls-1" d="M183.67,31.64c0-.76,0-1.73-.68-1.73a2.64,2.64,0,0,0-.73.13V29.4a15.61,15.61,0,0,1,4.1-.78v1.26a5.28,5.28,0,0,1,3.6-1.26c2.05,0,3.44.93,3.44,3.86v4.27c0,1.15.11,1.39.93,1.46l.48,0v.56h-5.55v-.56l.48,0c.82-.07.93-.31.93-1.46V33.68c0-1.71,0-3.79-2.37-3.79a2.58,2.58,0,0,0-1.89.82v6c0,1.15.11,1.39.94,1.46l.48,0v.56h-5.51v-.56l.48,0c.77-.07.89-.31.89-1.46Z" transform="translate(-0.64 -0.11)"/>
<path class="cls-1" d="M205.11,38a6.81,6.81,0,0,1-4.1,1.11c-2.48,0-5.33-1.63-5.33-4.79a5.76,5.76,0,0,1,6-5.73,5.2,5.2,0,0,1,3.1.72,3.1,3.1,0,0,1-.89,1.78h-.21a3.52,3.52,0,0,0-2.62-1.41c-1.46,0-2.46,1.32-2.46,3.51,0,3.23,2,4.66,4.23,4.66a7.59,7.59,0,0,0,2.07-.37Z" transform="translate(-0.64 -0.11)"/>
<path class="cls-1" d="M206.3,38.25l.48,0c.82-.09.93-.31.93-1.46V31.64c0-.76,0-1.73-.68-1.73a2.65,2.65,0,0,0-.73.13V29.4a15.9,15.9,0,0,1,4.14-.78v8.13c0,1.15.12,1.37.93,1.46l.48,0v.56H206.3Zm1-13a1.53,1.53,0,0,1,1.59-1.49,1.56,1.56,0,0,1,1.59,1.49,1.6,1.6,0,0,1-3.19,0Z" transform="translate(-0.64 -0.11)"/>
<path class="cls-1" d="M219.36,36.19c0,.41.07,1,.09,1.17a2.14,2.14,0,0,1-1.39.52,1.68,1.68,0,0,1-1.68-1.82c0-1.61,1.43-2.25,2.73-2.25l.25,0Zm4.37,2.13a.56.56,0,0,1-.18,0c-1.46,0-1.46-1.61-1.46-3.17V32.51c0-2.47-.5-3.88-3.37-3.88a6.71,6.71,0,0,0-4.9,2.3,3.13,3.13,0,0,0,.61,1.11h.23a3,3,0,0,1,2.71-2.15c1.62,0,2,1.15,2,2.43v.52c-1.89.48-5.9,1.21-5.9,3.95,0,1.39,1.2,2.36,3,2.36A5.17,5.17,0,0,0,219.61,38a2.22,2.22,0,0,0,2.23,1.11,3.94,3.94,0,0,0,2-.54Z" transform="translate(-0.64 -0.11)"/>
<path class="cls-1" d="M224.72,38.25l.48,0c.82-.09.93-.31.93-1.46V27c0-1.91,0-2.75-.77-2.75-.27,0-.55,0-.64,0V23.7a20,20,0,0,1,4.14-.5V36.75c0,1.15.11,1.37.93,1.46l.48,0v.56h-5.55Z" transform="translate(-0.64 -0.11)"/>
<path class="cls-1" d="M95.54,38.25l.55-.07c1.07-.19,1.07-.11,1.07-2.58v-8c0-2.1,0-2.36-1.07-2.51l-.55-.07V24.5h6.19v.56l-.55.07c-1.07.15-1.07.41-1.07,2.51v10a5.56,5.56,0,0,0,1.57.3c3.21,0,3.23-1.47,3.89-3.28l.82.15a15,15,0,0,1-.79,3.95H95.54Z" transform="translate(-0.64 -0.11)"/>
<path class="cls-1" d="M107.47,38.25l.48,0c.82-.09.93-.3.93-1.45V31.64c0-.76,0-1.73-.68-1.73a2.61,2.61,0,0,0-.73.13v-.63a15.85,15.85,0,0,1,4.14-.78v8.13c0,1.15.11,1.37.93,1.45l.48,0v.56h-5.56Zm1-13a1.53,1.53,0,0,1,1.59-1.5,1.56,1.56,0,0,1,1.59,1.5,1.59,1.59,0,0,1-3.19,0Z" transform="translate(-0.64 -0.11)"/>
<path class="cls-1" d="M115.92,29.92V29c0-3,1.57-6.07,5.14-6.07a4,4,0,0,1,2.48.72,2.79,2.79,0,0,1-.91,1.62h-.16A4.37,4.37,0,0,0,120.11,24c-1.36,0-1.46,1.76-1.46,3.75V29c.68,0,2.07.11,2.82.19v.56c-1,.11-1.87.17-2.82.21v6.83c0,1.15.11,1.39,1,1.45l.91,0v.56h-6v-.56l.46,0c.84-.09,1-.3,1-1.45Z" transform="translate(-0.64 -0.11)"/>
<path class="cls-1" d="M125,33.22c0-.39,0-3.77,2-3.77,1.43,0,2.12,1.28,2.28,2.84A28.5,28.5,0,0,1,125,33.22Zm6.7,4a5.72,5.72,0,0,1-2.5.63c-3.12,0-3.8-2.34-4.05-3.64A38,38,0,0,0,132,32.16c-.25-1.26-.84-3.53-4.51-3.53a5.19,5.19,0,0,0-5.21,5.4c0,3.49,2.64,5.12,5.33,5.12a7,7,0,0,0,4.32-1.39Z" transform="translate(-0.64 -0.11)"/>
<path class="cls-1" d="M19.16,5.13a13.75,13.75,0,0,1-1.92-5H17a13.73,13.73,0,0,0-.88,5.38A18.72,18.72,0,0,1,19.16,5.13Z" transform="translate(-0.64 -0.11)"/>
<path class="cls-1" d="M24.14,5.61A13.78,13.78,0,0,1,23.61.27L23.39.2a13.77,13.77,0,0,0-2.26,5A18.52,18.52,0,0,1,24.14,5.61Z" transform="translate(-0.64 -0.11)"/>
<path class="cls-1" d="M28.81,7.39a13.75,13.75,0,0,1,.9-5.3L29.51,2A13.75,13.75,0,0,0,26,6.16,19.09,19.09,0,0,1,28.81,7.39Z" transform="translate(-0.64 -0.11)"/>
<path class="cls-1" d="M32.85,10.33a13.73,13.73,0,0,1,2.26-4.87L35,5.29a13.75,13.75,0,0,0-4.46,3.12A18.84,18.84,0,0,1,32.85,10.33Z" transform="translate(-0.64 -0.11)"/>
<path class="cls-1" d="M36,14.23a13.75,13.75,0,0,1,3.46-4.11l-.11-.2a13.71,13.71,0,0,0-5.13,1.84A18.68,18.68,0,0,1,36,14.23Z" transform="translate(-0.64 -0.11)"/>
<path class="cls-1" d="M37.8,18.28c.06.18.11.35.16.53a13.75,13.75,0,0,1,4.42-3.06l-.05-.22A13.73,13.73,0,0,0,36.9,16,18.71,18.71,0,0,1,37.8,18.28Z" transform="translate(-0.64 -0.11)"/>
<path class="cls-1" d="M38.06,28.71a13.74,13.74,0,0,1,5.36-.39l.06-.21a13.7,13.7,0,0,0-4.89-2.39A18.56,18.56,0,0,1,38.06,28.71Z" transform="translate(-0.64 -0.11)"/>
<path class="cls-1" d="M38.39,20.73a18.61,18.61,0,0,1,.28,3A13.74,13.74,0,0,1,43.74,22v-.22A13.71,13.71,0,0,0,38.39,20.73Z" transform="translate(-0.64 -0.11)"/>
<path class="cls-1" d="M37.46,30.59a18.93,18.93,0,0,1-1.3,2.75,13.75,13.75,0,0,1,5.28,1l.12-.19A13.76,13.76,0,0,0,37.46,30.59Z" ransform="translate(-0.64 -0.11)"/>
<path class="cls-1" d="M14.19,6l.06,0a13.76,13.76,0,0,1-3.17-4.34l-.22.06a13.72,13.72,0,0,0,.56,5.42A18.82,18.82,0,0,1,14.19,6Z" transform="translate(-0.64 -0.11)"/>
<path class="cls-1" d="M29.14,40.32a13.7,13.7,0,0,1,4,3.56l.2-.1a13.71,13.71,0,0,0-1.7-5.17A18.85,18.85,0,0,1,29.14,40.32Z" transform="translate(-0.64 -0.11)"/>
<path class="cls-1" d="M33.12,37.3a13.77,13.77,0,0,1,4.81,2.38l.17-.15a13.76,13.76,0,0,0-3-4.54A18.91,18.91,0,0,1,33.12,37.3Z" transform="translate(-0.64 -0.11)"/>
<path class="cls-1" d="M7,30.32a18.07,18.07,0,0,0,3-.19l-.35-.63a32,32,0,0,1-3.07-8.2,13.7,13.7,0,0,1-2.06,0A6.9,6.9,0,0,1,1.24,20a18.79,18.79,0,0,0-.41,7.45S2.32,30.34,7,30.32Z" transform="translate(-0.64 -0.11)"/>
<path class="cls-1" d="M14,38c.66-.08,1.29-.18,1.91-.31a30.33,30.33,0,0,1-5.23-6.48,20.22,20.22,0,0,1-3,.26c-5.6-.1-6.49-2.17-6.49-2.17s.21.67.25.81a18.55,18.55,0,0,0,1.4,3.41,15.89,15.89,0,0,0,1.31,2.05S7,38.7,14,38Z" transform="translate(-0.64 -0.11)"/>
<path class="cls-1" d="M7.38,20.16A19.54,19.54,0,0,0,13,18.55l.72-.32a84.16,84.16,0,0,1-3.7-9.94l-.18.11c-.55.33-1.08.68-1.59,1.06C6.68,11.76,6.39,15.67,7.38,20.16Z" transform="translate(-0.64 -0.11)"/>
<path class="cls-1" d="M6.43,20.22C5.71,16.13,6.1,12.49,7.57,10A18.63,18.63,0,0,0,1.7,18.84,6.57,6.57,0,0,0,6.43,20.22Z" transform="translate(-0.64 -0.11)"/>
<path class="cls-1" d="M16.94,38.57c-3.27.77-7,1-10.14-.47a18.2,18.2,0,0,0,17.84,4A14,14,0,0,1,16.94,38.57Z" transform="translate(-0.64 -0.11)"/>
<path class="cls-1" d="M31.84,29.64a24.45,24.45,0,0,1-7.08,6l-1,.5-.55.26A34.94,34.94,0,0,1,18,38.31c2.59,2.24,5.23,3.51,7.49,3.51A17.77,17.77,0,0,0,27.34,41l.08,0s-2.15-2.77-2.9-3.74l.27-.14a13.25,13.25,0,0,0,1.5-.91,19,19,0,0,0,5.77-5.9,12.38,12.38,0,0,0,1.3-2.88l-.12-.07A11.31,11.31,0,0,1,31.84,29.64Z" transform="translate(-0.64 -0.11)"/>
<path class="cls-1" d="M31.49,16.15a16.32,16.32,0,0,1-3.19,5.32,28.9,28.9,0,0,1-8,6.37l-.47.25h0l-.83.4-.77.36a32.81,32.81,0,0,1-3.35,1.31,12.86,12.86,0,0,1-1.39.4h0q-.81.22-1.6.39A32.61,32.61,0,0,0,17,37.43a30.7,30.7,0,0,0,5.56-1.92l.6-.28c-1.16-1.7-2.35-3.6-3.49-5.53l.06,0,.76-.38c.65-.34,1.22-.68,1.62-.95a24.51,24.51,0,0,0,6.55-6.14,17.12,17.12,0,0,0,2.93-5.88Z" transform="translate(-0.64 -0.11)"/>
<path class="cls-1" d="M14.23,19.29l-.74.32a22.24,22.24,0,0,1-5.85,1.61A35.62,35.62,0,0,0,10.71,29l.53,1a30.87,30.87,0,0,0,6.37-2.06l.78-.36q-.62-1.1-1.22-2.24c0,.06-1.36-2.7-2.06-4.1l-.33-.7.25-.13.31-.17.07,0,.86-.47a18,18,0,0,0,7.07-6.83,12.29,12.29,0,0,0,1.23-3l-.12-.08A11.48,11.48,0,0,1,23,12.34a22.37,22.37,0,0,1-7.32,6.22l-.14.06S15.14,18.87,14.23,19.29Z" transform="translate(-0.64 -0.11)"/>
</svg>