<?xml version="1.0" standalone="no"?>
<!DOCTYPE svg PUBLIC "-//W3C//DTD SVG 20010904//EN"
 "http://www.w3.org/TR/2001/REC-SVG-20010904/DTD/svg10.dtd">
<svg version="1.0" xmlns="http://www.w3.org/2000/svg"
 width="512.000000pt" height="512.000000pt" viewBox="0 0 512.000000 512.000000"
 preserveAspectRatio="xMidYMid meet">
<metadata>
Created by potrace 1.15, written by Peter Selinger 2001-2017
</metadata>
<g transform="translate(0.000000,512.000000) scale(0.100000,-0.100000)"
fill="#000000" stroke="none">
<path d="M3897 4836 c-203 -75 -263 -308 -118 -456 139 -142 390 -110 477 61
94 187 -33 395 -250 406 -45 2 -85 -2 -109 -11z"/>
<path d="M560 4373 c-26 -9 -66 -37 -96 -68 -123 -122 -108 -312 31 -414 45
-33 131 -61 185 -61 101 0 206 62 255 151 26 46 30 64 30 129 0 116 -50 197
-155 252 -58 30 -183 36 -250 11z"/>
<path d="M3300 4334 c-140 -38 -268 -123 -413 -274 -91 -95 -267 -332 -267
-360 0 -5 -44 22 -97 61 -261 189 -526 319 -757 371 -122 28 -305 30 -396 5
-199 -54 -359 -209 -416 -402 -24 -80 -23 -228 1 -315 67 -241 272 -516 559
-750 l79 -64 18 24 c10 14 45 61 78 105 l59 80 -132 135 c-143 145 -199 215
-264 325 -110 189 -116 346 -17 441 38 37 52 43 114 54 144 24 358 -23 645
-142 129 -53 275 -125 338 -165 l39 -24 67 23 c52 18 89 23 162 23 52 0 102
-4 112 -10 12 -7 -5 -10 -61 -11 -85 -1 -155 -20 -243 -66 -62 -33 -67 -41
-139 -249 l-23 -66 -87 5 -88 5 -31 -34 c-17 -19 -36 -42 -41 -51 -8 -16 -5
-18 28 -18 34 0 172 -25 179 -33 2 -1 -6 -36 -17 -77 -26 -100 -69 -333 -69
-376 l0 -34 -107 71 c-60 40 -126 87 -148 104 -22 18 -45 35 -52 39 -8 4 -30
-29 -66 -101 l-54 -108 22 -55 c60 -152 165 -324 302 -495 79 -99 279 -315
292 -315 7 1 131 186 131 197 0 5 -12 15 -28 24 -15 9 -69 48 -119 88 l-93 72
0 82 c0 45 4 88 9 96 7 11 26 7 102 -23 76 -29 252 -86 266 -86 1 0 19 32 38
71 l36 70 -43 17 c-24 9 -114 51 -200 94 -107 53 -158 83 -158 94 0 32 53 191
112 336 l60 147 52 -20 c28 -11 116 -52 196 -92 79 -40 147 -73 151 -75 6 -3
49 160 49 187 0 15 -87 53 -239 103 -69 23 -127 42 -129 43 -2 2 124 224 133
234 5 5 55 -30 156 -111 48 -37 90 -68 93 -68 9 0 7 102 -4 160 -12 61 -55
166 -82 196 -10 11 -18 24 -18 28 0 18 139 183 238 283 122 124 218 192 315
224 57 19 73 20 105 11 93 -28 168 -126 192 -250 8 -39 11 -111 8 -195 -6
-155 -36 -302 -105 -507 -42 -128 -146 -386 -163 -403 -4 -5 -22 28 -40 72
-36 91 -112 224 -196 342 -61 87 -199 255 -229 279 -17 13 -17 11 2 -20 32
-53 62 -151 75 -243 l11 -82 76 -81 c42 -44 91 -102 109 -127 l33 -47 -106 56
c-58 31 -108 55 -110 53 -1 -2 -8 -47 -14 -99 -7 -52 -14 -102 -16 -111 -4
-11 20 -33 82 -74 49 -32 114 -78 146 -102 l58 -45 -27 -46 c-14 -26 -56 -93
-93 -149 -66 -102 -66 -103 -106 -102 -22 0 -71 6 -110 13 -38 8 -73 11 -76 8
-13 -15 -41 -103 -35 -110 4 -3 45 -9 92 -12 l85 -5 -54 -65 c-65 -80 -183
-189 -243 -227 -32 -20 -54 -46 -79 -93 -19 -36 -51 -91 -70 -123 l-35 -57 58
-46 c111 -89 327 -225 456 -289 431 -212 775 -220 1007 -23 l64 54 -3 -73 c-5
-90 17 -158 71 -219 130 -148 367 -122 454 50 37 73 42 162 13 241 -31 84
-107 158 -186 181 -77 22 -159 15 -219 -20 l-45 -27 21 53 c29 74 39 205 22
300 -23 136 -98 293 -212 443 -64 84 -254 277 -353 359 l-84 68 96 192 c142
280 220 504 261 749 25 147 22 381 -6 482 -60 216 -211 367 -420 420 -74 19
-223 18 -295 -1z m-1130 -2084 c23 -10 28 -19 34 -63 3 -29 6 -68 6 -87 l0
-34 -46 44 c-52 51 -173 192 -198 232 -16 24 -8 22 80 -27 53 -29 109 -59 124
-65z m1490 -116 c138 -143 214 -243 273 -361 110 -218 62 -408 -110 -443 -168
-35 -470 44 -822 215 l-165 81 60 33 c153 86 337 252 495 448 53 67 103 131
109 143 11 20 11 20 38 1 15 -10 70 -63 122 -117z"/>
</g>
</svg>
